<svg width="182" height="91" viewBox="0 0 182 91" fill="none" xmlns="http://www.w3.org/2000/svg">
<path d="M176.033 89.8756C179.27 89.8756 181.869 87.2764 181.869 84.0844C181.869 80.8924 179.247 78.2932 176.033 78.2932C172.818 78.2932 170.196 80.8924 170.196 84.0844C170.173 87.2992 172.795 89.8756 176.033 89.8756ZM74.2305 11.6259C77.4681 11.6259 80.0673 9.02667 80.0673 5.83467C80.0673 2.64266 77.4453 0.043457 74.2305 0.043457C70.9929 0.043457 68.3937 2.64266 68.3937 5.83467C68.3709 9.04947 70.9929 11.6259 74.2305 11.6259Z" fill="#00FF84"/>
<path d="M52.9353 48.1516L43.2909 34.3575V48.1516H33.3272V16.4139H43.3136V29.8203L53.2317 16.4823H65.0421L52.8897 31.4847L65.2245 48.1516H52.9353ZM79.2237 16.4139H69.2373V48.1288H79.2237V16.4139ZM69.0549 73.3912C69.0549 63.9292 74.8917 56.7244 84.0801 56.7244C88.6857 56.7244 92.2881 58.8904 93.9981 62.1052V57.568H103.985V89.2144H93.9981V84.7456C92.2881 87.892 88.3437 90.058 83.9661 90.058C74.5041 90.0808 69.0549 82.9216 69.0549 73.3912ZM94.3857 73.3912C94.3857 68.854 91.8321 65.1148 86.8389 65.1148C82.1877 65.1148 79.2921 68.6032 79.2921 73.3912C79.2921 78.1792 82.1877 81.736 86.8389 81.736C91.8321 81.736 94.3857 77.9968 94.3857 73.3912ZM109.844 57.5908H119.876V64.2256C120.993 59.506 124.733 57.0664 128.609 57.0664C129.794 57.0664 130.455 57.1348 131.231 57.34L131.185 66.6652C129.999 66.5284 129.452 66.46 128.221 66.46C122.772 66.46 119.876 69.994 119.876 77.0164V89.2372H109.844V57.5908ZM133.283 73.3912C133.283 63.0172 140.054 56.7244 150.337 56.7244C160.187 56.7244 166.89 62.8348 166.89 71.7496C166.89 73.3912 166.821 74.3716 166.616 76.15H143.246C143.451 80.2768 146.21 82.5112 150.656 82.5112C153.734 82.5112 155.718 81.6676 156.561 79.684H166.411C165.431 85.9084 159.069 90.058 150.656 90.058C139.917 90.0808 133.283 83.9704 133.283 73.3912ZM156.972 69.9256C156.903 65.7304 154.555 63.496 150.269 63.496C145.937 63.496 143.315 66.0496 143.246 69.9256H156.972ZM95.0697 38.7352V16.4367H85.0377V39.0772V48.1744H95.0697H109.388V38.758H95.0697V38.7352ZM124.869 38.7352V16.4367H114.837V39.0772V48.1744H124.869H139.188V38.758H124.869V38.7352ZM55.1925 57.568V68.968H43.154V57.568H33.3272V68.968V78.0652V89.3056H43.1769V78.0652H55.2153V89.3056H65.0649V78.0652V68.968V57.568H55.1925V57.568ZM20.924 70.4272L14.7908 68.74C12.716 68.1244 12.0092 67.2124 12.0092 65.9356C12.0092 64.522 13.1036 63.7012 14.54 63.5416C16.6148 63.2908 18.2108 64.2028 18.2108 66.4372V66.574H28.7672V66.4372C28.7672 60.1216 23.432 56.6332 14.4944 56.6332C6.35478 56.6332 0.973972 60.5776 0.973972 66.574C0.973972 71.3848 3.86958 74.5996 8.90839 75.8536L15.2468 77.4496C17.1164 78.0424 17.8916 78.9544 17.8688 80.4136C17.8688 81.9868 16.2728 82.8988 14.654 82.9672C12.3056 83.0812 10.5956 81.8044 10.4588 79.7752H0.130371C0.289971 85.8172 6.19518 90.0808 15.0644 90.0808C23.4548 90.0808 28.904 86.2048 28.904 79.6156C28.9268 74.782 25.9172 71.7496 20.924 70.4272ZM20.924 29.3643L14.7908 27.6771C12.716 27.0615 12.0092 26.1495 12.0092 24.8727C12.0092 23.4591 13.1036 22.6383 14.54 22.4787C16.6148 22.2279 18.2108 23.1399 18.2108 25.3743V25.5111H28.7672V25.3743C28.7672 19.0587 23.432 15.5703 14.4944 15.5703C6.35478 15.5703 0.973972 19.5147 0.973972 25.5111C0.973972 30.3219 3.86958 33.5367 8.90839 34.7907L15.2468 36.3867C17.1164 36.9796 17.8916 37.8916 17.8688 39.3508C17.8688 40.924 16.2728 41.836 14.654 41.9044C12.3056 42.0184 10.5956 40.7416 10.4588 38.7124H0.130371C0.289971 44.7544 6.19518 49.018 15.0644 49.018C23.4548 49.018 28.904 45.142 28.904 38.5528C28.9268 33.6963 25.9172 30.6867 20.924 29.3643Z" fill="white"/>
</svg>
