<svg width="182" height="26" viewBox="0 0 182 26" fill="none" xmlns="http://www.w3.org/2000/svg">
<path d="M91.4727 8.68288C91.5838 6.54758 92.3493 4.80233 93.5457 3.44072V1.62714H91.9557C88.7413 1.62714 86.0206 2.85921 84.4387 5.64221H84.3462V1.9332H76.1022V24.5513H84.348V15.4205C84.348 11.5449 85.4818 8.59035 90.0574 8.59035C90.5556 8.59391 91.0218 8.62238 91.4727 8.68288V8.68288ZM153.902 8.60031C154.586 6.60132 155.697 4.82083 157.141 3.39232V1.62536H155.554C152.338 1.62536 149.62 2.85672 148.03 5.63865H147.941V1.9332H139.692V24.5513H147.941V15.4205C147.941 11.5449 149.079 8.59035 153.654 8.59035L153.902 8.60031V8.60031ZM108.218 7.75224C106.946 7.09101 105.175 6.65007 103.767 6.65007C102.821 6.65007 101.187 7.04368 101.187 8.19318C101.187 9.73771 103.767 9.95658 104.908 10.1822C108.751 10.9296 111.659 12.6947 111.659 16.8778C111.659 22.8282 106.084 25.3051 100.688 25.3051C97.3775 25.3051 94.1216 24.378 91.3076 22.7018L94.2981 17.0984C95.9725 18.2494 98.7826 19.3918 100.822 19.3918C101.865 19.3918 103.405 18.9088 103.405 17.6739C103.405 15.9101 100.822 15.8176 98.2356 15.1578C95.6561 14.4966 93.0763 13.2649 93.0763 9.2078C93.0763 3.6514 98.2356 1.1862 103.321 1.1862C105.949 1.1862 108.58 1.58123 110.976 2.63998L108.218 7.75224H108.218ZM181.869 24.5513H173.623V22.0353H173.533C172.082 24.2837 169.221 25.2966 166.507 25.2966C159.615 25.2966 154.77 19.6964 154.77 13.2143C154.77 6.73904 159.529 1.18086 166.415 1.18086C169.087 1.18086 171.901 2.15029 173.622 4.13256V1.9332H181.866L181.87 24.5513H181.869ZM163.29 13.2631C163.29 16.1272 165.242 18.3319 168.591 18.3319C171.943 18.3319 173.886 16.1308 173.886 13.2631C173.886 10.4851 171.943 8.14905 168.591 8.14905C165.242 8.15119 163.29 10.4851 163.29 13.2631ZM138.392 14.5891H121.031C121.031 17.849 122.803 19.6106 126.2 19.6106C127.967 19.6106 129.234 19.0401 130.143 17.5394H138.075C136.761 22.8751 131.548 25.3001 126.247 25.3001C118.548 25.3001 112.793 21.0644 112.793 13.2649C112.793 5.7262 118.089 1.1862 125.656 1.1862C133.722 1.1862 138.395 6.0376 138.395 13.7496L138.391 14.5895L138.392 14.5891ZM130.732 9.95658C130.322 7.79602 128.283 6.38565 126.065 6.38565C123.661 6.38565 121.675 7.61594 121.168 9.95658H130.732V9.95658ZM49.8746 12.8695C49.8657 12.6763 49.8534 12.4832 49.8376 12.2905V12.2837C49.6526 10.1854 48.9593 8.22165 47.7831 6.44793C47.265 5.66613 46.6623 4.94383 45.9859 4.29413C45.0047 3.34997 43.8688 2.56916 42.5883 1.95171C40.6615 1.03139 38.5326 0.566965 36.261 0.566965C36.039 0.566965 35.8066 0.570168 35.5728 0.578709C33.9777 0.650953 32.4346 0.95381 30.984 1.48728C29.5213 2.01576 28.2476 2.71401 27.206 3.55211C26.9942 3.72044 26.7636 3.92721 26.5163 4.15462L26.3376 4.32936L26.0938 4.58844H26.097L25.9828 4.70126L25.9273 4.76176L25.6362 5.06817C25.4264 5.30408 25.2222 5.54484 25.0237 5.79026L25.0219 5.7867L25.0148 5.77994C24.6162 6.26465 24.2479 6.76609 23.9767 7.21699C23.7922 7.50826 23.6139 7.80335 23.4418 8.10208L21.0641 12.9101L21.0673 12.9133L20.9428 13.1574L20.6801 13.6891C20.1588 14.7443 19.6 15.7959 18.9754 16.6643C17.5839 18.1903 16.0109 18.9376 13.9881 18.9376C13.8465 18.9376 13.702 18.9305 13.5539 18.9223C12.3354 18.8736 11.2905 18.586 10.3634 18.0373C10.2656 17.9795 10.1695 17.919 10.0752 17.8558C9.3182 17.3525 8.73776 16.7063 8.30358 15.9002C7.81389 14.9863 7.5968 14.0524 7.62741 13.0631C7.62883 13.036 7.63061 13.0125 7.63061 12.9905C7.69609 11.4157 8.29682 10.1904 9.50682 9.132C9.7949 8.88506 10.104 8.6638 10.4307 8.47077C10.4759 8.44372 10.5214 8.41846 10.567 8.39497C11.4656 7.90527 12.4888 7.66149 13.6614 7.66149L14.0265 7.67146C15.8896 7.74228 17.3266 8.3245 18.4726 9.46013L22.067 3.0069C21.2068 2.43144 20.236 1.9364 19.1658 1.53425C19.1253 1.51931 19.0833 1.50223 19.0413 1.48906C18.9132 1.4435 18.7872 1.39653 18.6559 1.35418C17.5185 0.974095 16.3252 0.74028 15.097 0.634227C15.0664 0.628889 15.033 0.625686 15.0027 0.622483C14.8141 0.610383 14.6223 0.586894 14.434 0.578709C14.2292 0.57087 14.0243 0.566362 13.8194 0.565186H13.703C11.4432 0.573371 9.34347 1.03637 7.42313 1.95313C5.27253 2.98982 3.52906 4.49947 2.23684 6.44437C0.948192 8.39034 0.244612 10.5495 0.143897 12.8666C0.135242 13.0628 0.130733 13.2592 0.130373 13.4556C0.128594 16.6959 1.31013 19.5466 3.65895 21.9395C6.11099 24.4503 9.2997 25.8033 13.1279 25.9631C13.3735 25.9731 13.6162 25.9799 13.8582 25.9799C16.0241 25.9799 18.0281 25.5944 19.8253 24.8239C20.2748 24.6318 20.7107 24.4065 21.1563 24.156C21.399 24.0161 21.6278 23.868 21.8549 23.71L22.0232 23.5972L22.3058 23.4036C22.6432 23.1593 22.9663 22.8957 23.2734 22.6143L23.3813 22.5118C23.5637 22.3399 23.7421 22.1637 23.9162 21.9833L24.5607 21.2548L24.8062 20.9466L24.9208 20.7786L25.0354 20.6135C25.9928 19.0049 29.1092 13.1506 29.1092 13.1506V13.1389L29.2943 12.7819L29.4491 12.5026C29.9085 11.6662 30.2402 11.0723 30.6794 10.4481L30.6911 10.4296C31.7161 8.94374 33.4777 7.88499 35.5543 7.70705C39.0376 7.40739 42.0901 9.69572 42.3712 12.8189C42.6506 15.9422 40.0523 18.717 36.5689 19.0184C35.8436 19.0807 35.1386 19.032 34.4738 18.8853L34.4571 18.8924C31.9011 18.3604 30.2737 16.4959 29.4712 15.6628L26.1187 21.8267C26.1187 21.8267 27.1608 22.8769 27.8743 23.4018C28.5896 23.925 29.5131 24.4403 30.2502 24.7599C32.0388 25.524 33.9841 25.9816 36.1329 25.9816C36.382 25.9816 36.3319 25.9816 36.5909 25.9717C40.4156 25.8115 43.825 24.346 46.2838 21.8352C48.6127 19.4508 49.8764 16.7283 49.8882 13.5054V13.4094C49.8861 13.2293 49.8816 13.0494 49.8746 12.8695V12.8695ZM62.6975 25.3154C60.959 25.3154 59.3824 25.1133 57.9671 24.7094C56.5517 24.3054 55.3435 23.6677 54.3424 22.7929C53.3377 21.9175 52.5637 20.8035 52.0185 19.4526C51.4733 18.1013 51.2007 16.4724 51.2007 14.5742V1.92822H59.155V14.4731C59.155 15.8952 59.4949 16.9251 60.1728 17.5679C60.8529 18.212 61.7163 18.5337 62.7629 18.5337C63.8331 18.5337 64.7014 18.2341 65.3716 17.6333C66.0378 17.0326 66.3741 16.0365 66.3741 14.6364V1.92786H74.3284V14.4076C74.3284 16.3732 74.0494 18.044 73.4921 19.4188C72.9351 20.7954 72.1494 21.9196 71.1379 22.7944C70.1215 23.6698 68.8984 24.3054 67.4595 24.7111C66.0207 25.1133 64.4338 25.3151 62.6975 25.3151V25.3154Z" fill="white"/>
</svg>
