<svg width="182" height="52" viewBox="0 0 182 52" fill="none" xmlns="http://www.w3.org/2000/svg">
<path fill-rule="evenodd" clip-rule="evenodd" d="M167.632 44.4972H172.847L181.869 21.6323H176.708L172.978 33.0197L169.049 21.632H163.288L170.148 38.148L167.632 44.4972ZM141.749 27.06V38.7805H136.488V21.6323H140.184L141.284 23.1303C142.715 21.9322 144.247 21.2321 146.011 21.2321C148.376 21.2321 150.174 21.9319 151.273 23.6641C152.871 22.1981 154.569 21.2321 156.734 21.2321C160.796 21.2321 163.161 23.3307 163.161 29.0245V38.7805H157.9V29.6242C157.9 26.9936 156.834 26.2274 155.135 26.2274C154.136 26.2274 153.304 26.4932 152.372 27.0928C152.439 27.6925 152.472 28.3247 152.472 29.0245V38.7805H147.211V29.6242C147.211 26.9936 146.145 26.2274 144.413 26.2274C143.448 26.2274 142.648 26.4607 141.749 27.06V27.06ZM123.4 28.5251H130.16C129.793 26.2947 128.594 25.2285 126.797 25.2285C125.264 25.2285 123.8 26.1278 123.4 28.5254L123.4 28.5251ZM127.163 39.114C122.102 39.114 118.039 36.6165 118.039 30.0231C118.039 23.8626 121.968 21.1995 126.497 21.1995C131.958 21.1995 134.389 25.0281 134.389 31.0554H123.367C123.733 34.0189 125.565 34.8853 127.996 34.8853C130.347 34.8853 132.186 34.3049 133.609 33.3475L132.895 37.5209C131.537 38.57 129.907 39.114 127.163 39.114V39.114ZM107.573 34.6855C108.771 34.6855 109.67 34.4851 110.603 33.7862V26.3279C109.771 25.8275 108.939 25.5952 107.74 25.5952C105.175 25.5952 103.71 27.3264 103.71 30.2228C103.71 33.0541 105.209 34.6861 107.573 34.6861L107.573 34.6855ZM111.635 37.5158C110.27 38.5482 108.705 39.1804 106.474 39.1804C101.779 39.1804 98.3828 36.2837 98.3828 30.323C98.3828 24.3959 102.279 21.1995 107.273 21.1995C108.439 21.1995 109.571 21.3661 110.603 21.7653V14.4866H115.865V38.7805H112.534L111.635 37.5158ZM76.0904 28.6247V15.9156H81.551V28.5248C81.551 33.0535 83.5819 33.9857 86.3794 33.9857C89.4098 33.9857 90.9745 32.6533 90.9745 28.5248V15.9156H96.4689V28.6247C96.4689 36.1171 93.2058 39.2471 86.1135 39.2471C79.5197 39.2471 76.0901 36.5498 76.0901 28.6247H76.0904Z" fill="white"/>
<path fill-rule="evenodd" clip-rule="evenodd" d="M62.1733 29.5773C61.9586 29.4017 61.7037 29.282 61.4314 29.229C59.8297 30.8253 57.8753 32.5069 56.1399 33.6369C55.3389 34.1693 54.3319 34.4351 53.6649 34.4351C52.1299 34.4351 51.463 32.9716 51.2626 30.6451C50.9958 27.5205 50.8156 23.7776 50.8156 17.9927C50.8156 12.0595 49.469 8.02612 45.882 7.70939C45.7275 7.69498 45.5724 7.68739 45.4173 7.68663C43.2154 7.68663 42.1476 8.81668 40.7463 11.6764C39.5455 14.136 37.677 17.7265 34.2078 24.5084C31.2049 30.3597 27.8688 35.5459 24.9993 39.1364C24.2002 40.1318 23.5687 40.8155 22.975 41.2043C22.5783 41.4654 22.1974 41.5963 21.7969 41.5963C20.6643 41.5963 19.8374 40.6404 19.5612 38.4148C19.4957 37.8859 19.461 37.2857 19.461 36.6095C19.461 32.022 21.1963 24.5748 24.1983 13.604C26.4002 5.62505 25.4665 0.17395 20.6618 0.17395H20.6081L20.6046 0.174898C19.5166 0.187542 18.6148 0.581399 17.7458 1.26543C16.8902 1.93872 16.0338 3.39403 15.2347 5.35004C14.3339 7.55356 8.85559 18.5424 0.136366 24.2033C0.0336343 26.356 1.25219 28.5073 3.72091 28.7406C5.96836 28.9533 7.56402 28.0063 9.61865 26.6259C9.34314 27.8544 9.07172 29.0838 8.80438 30.3141C8.64791 31.0326 8.54834 31.4948 8.51895 31.6228C8.24775 32.8558 8.04032 34.1021 7.8975 35.3565C6.66788 46.346 11.7618 51.7689 17.7269 51.7689C18.7238 51.7689 19.7113 51.6501 20.6925 51.401C27.2648 49.7345 33.5918 42.1956 41.0807 24.8409C40.9673 26.7286 40.9556 28.4918 41.0371 30.1283C41.5306 40.0746 45.4647 43.0585 51.023 43.0585C55.2264 43.0585 59.1631 40.8648 61.1646 38.1385C62.6332 36.2103 63.2335 34.0823 63.2335 32.4203C63.2335 31.1303 62.8244 30.1001 62.1736 29.5773" fill="white"/>
</svg>
