<svg width="182" height="33" viewBox="0 0 182 33" fill="none" xmlns="http://www.w3.org/2000/svg">
<path d="M59.7963 19.2033C59.7963 21.864 57.5387 24.1217 54.5554 24.1217C51.5721 24.1217 49.3145 21.9447 49.3145 19.2033V9.60834H47.7019V19.2839C47.7019 22.751 50.3627 25.7343 54.5554 25.7343C58.7482 25.7343 61.4089 22.6703 61.4089 19.2839V9.60834H59.7963V19.2033ZM76.9705 9.60834H71.8908V25.7343H76.9705C81.647 25.7343 84.7915 22.6703 84.7915 17.6713C84.7915 12.7529 81.647 9.60834 76.9705 9.60834ZM76.8092 24.1217H73.5034V11.2209H76.8092C80.5988 11.2209 83.1789 13.8817 83.1789 17.6713C83.1789 21.7028 80.6794 24.1217 76.8092 24.1217ZM121.881 24.1217C118.172 24.1217 115.511 21.0577 115.511 17.3488C115.511 13.6398 118.172 10.8178 121.881 10.8178C124.784 10.8178 126.638 12.511 126.638 12.511L127.445 11.3822C127.445 11.3822 125.59 9.36646 121.801 9.36646C117.366 9.36646 113.899 12.8335 113.899 17.3488C113.899 21.864 117.205 25.7343 121.881 25.7343C125.751 25.7343 127.848 23.0735 127.848 23.0735L126.961 22.0253C126.88 22.0253 125.026 24.1217 121.881 24.1217ZM138.007 25.7343H139.62V9.60834H138.007V25.7343ZM148.489 11.2209H154.133V25.7343H155.746V11.2209H161.39V9.60834H148.489V11.2209ZM180.096 9.60834L175.097 16.865L170.017 9.60834H168.243L174.29 18.5582V25.7343H175.903V18.5582L181.87 9.60834H180.096V9.60834ZM98.4179 9.60834L92.0482 25.7343H93.7414L95.4346 21.1384L102.53 19.687L104.788 25.7343H106.481L100.111 9.60834H98.4179V9.60834ZM96.1603 19.3645L99.3049 11.7853H99.3855L102.046 18.2357L96.1603 19.3645Z" fill="white"/>
<path d="M10.8541 0.739014L0.130371 6.94749V21.1383C0.130371 27.6693 5.3713 32.9909 11.9023 32.9909C14.0793 32.9909 16.095 32.4264 17.8689 31.4589L26.5769 26.4599C30.044 24.6054 32.3822 21.0577 32.3822 16.8649V2.02909L30.2858 0.819643L21.0941 5.73805V21.2189C21.0941 21.864 21.0134 22.509 20.9328 23.154C20.7715 23.7991 20.6103 24.3635 20.3684 24.9279L20.1265 25.4117C19.804 25.4117 17.7883 24.686 16.7401 23.9603C16.2563 23.6378 15.8531 23.3153 15.45 22.9122C15.0468 22.509 14.7243 22.1059 14.4018 21.6221C14.0793 21.1383 12.9505 19.0419 12.9505 16.9456V1.94846L10.8541 0.739014ZM16.095 29.9269C15.5306 30.1688 14.7243 30.4913 14.0793 30.6526C13.4343 30.8139 12.8698 30.8139 12.2248 30.8139C11.5798 30.8139 10.9347 30.7332 10.2897 30.572C9.64466 30.4107 9.08026 30.2494 8.51585 30.0076C7.95144 29.7657 7.38704 29.4432 6.90326 29.1206C5.53255 28.1531 4.88752 27.3468 4.32311 26.4599C4.00059 25.9761 3.67807 25.4117 3.43618 24.8473C3.1943 24.2829 3.03304 23.6378 2.87178 22.9928C2.54926 22.4284 2.54926 21.7833 2.54926 21.1383V8.15694L10.6122 3.23853V16.8649C10.6122 22.0252 14.4018 26.3792 19.2396 27.4274C19.0783 27.6693 18.9171 27.9112 18.6752 28.0725C17.7883 28.9594 17.0626 29.5238 16.095 29.9269V29.9269ZM29.8021 18.6388C29.7214 19.2032 29.4795 19.7676 29.3183 20.2514C29.0764 20.7352 28.8345 21.2189 28.512 21.7027C28.1895 22.1865 27.2219 23.3959 25.9318 24.1216C24.6418 24.8473 23.4323 25.0892 22.7067 25.2504C23.1904 23.9603 23.513 22.6703 23.513 21.2189V6.94749L29.9633 3.23853V16.8649C29.9633 17.51 29.9633 18.0744 29.8021 18.6388V18.6388Z" fill="white"/>
</svg>
