<svg width="36" height="36" viewBox="0 0 36 36" fill="none" xmlns="http://www.w3.org/2000/svg">
<g id="Group 433">
<circle id="Ellipse 731" cx="18" cy="18" r="18" fill="#032E32"/>
<path id="Vector" d="M11.0767 12.6855C11.0767 12.2193 11.2404 11.8347 11.5678 11.5317C11.8953 11.2287 12.3209 11.0771 12.8449 11.0771C13.3594 11.0771 13.7757 11.2263 14.0938 11.5247C14.4212 11.8324 14.585 12.2333 14.585 12.7275C14.585 13.1751 14.4259 13.548 14.1078 13.8464C13.7804 14.1541 13.35 14.3079 12.8168 14.3079H12.8028C12.2882 14.3079 11.8719 14.1541 11.5538 13.8464C11.2357 13.5387 11.0767 13.1517 11.0767 12.6855ZM11.2591 24.9233V15.5806H14.3745V24.9233H11.2591ZM16.1006 24.9233H19.216V19.7065C19.216 19.3802 19.2534 19.1284 19.3282 18.9513C19.4592 18.6343 19.658 18.3662 19.9246 18.1471C20.1913 17.928 20.5257 17.8184 20.928 17.8184C21.9758 17.8184 22.4997 18.5224 22.4997 19.9303V24.9233H25.6151V19.5667C25.6151 18.1867 25.2877 17.1401 24.6328 16.4268C23.9779 15.7135 23.1125 15.3569 22.0366 15.3569C20.8298 15.3569 19.8895 15.8744 19.216 16.9093V16.9373H19.2019L19.216 16.9093V15.5806H16.1006C16.1193 15.879 16.1286 16.8067 16.1286 18.3639C16.1286 19.921 16.1193 22.1074 16.1006 24.9233Z" fill="white"/>
</g>
</svg>
